<svg width="800" height="600" xmlns="http://www.w3.org/2000/svg">
    <!-- Created with Method Draw - http://github.com/duopixel/Method-Draw/ -->
    <defs>
        <filter height="200%" width="200%" y="-50%" x="-50%" id="svg_1_blur">
            <feGaussianBlur stdDeviation="10" in="SourceGraphic"/>
        </filter>
    </defs>

    <g>
        <title>background</title>
        <rect fill="none" id="canvas_background" height="600" width="800" y="-1" x="-1"/>
    </g>
    <g>
        <title>Layer 1</title>
        <path fill="#000000" stroke-width="0" id="shadow" stroke="#000000" filter="url(#svg_1_blur)" d="
  M 208,0
  L 259,0
  L 399,252
  L 539,0
  L 591,0
  L 425,300
  L 590,600
  L 538,600
  L 399,352
  L 259,600
  L 208,600
  L 375,300
  Z
  "/>
        <path fill="#65b32c" stroke-width="0" id="green_x" stroke="#65b32c" d="
  M 425,300
  L 590,600
  L 538,600
  L 399,352
  L 259,600
  L 208,600
  L 375,300
  Z
  "/>
        <path fill="#e2023e" stroke-width="0" id="red_v" stroke="#e2023e" d="
  M 208,0
  L 259,0
  L 399,252
  L 539,0
  L 591,0
  L 399,352
  L 375,300
  Z
  "/>
    </g>
</svg>
